<svg xmlns="http://www.w3.org/2000/svg" viewBox="0 0 144 144" width="144" height="144">
  <rect width="144" height="144" rx="32" fill="#1C2421"/>
  <g transform="translate(12,12)">
    <rect x="50" y="2"  width="20" height="20" rx="5" fill="#E9A23B"/>
    <rect x="26" y="26" width="20" height="20" rx="5" fill="#C4502F"/>
    <rect x="50" y="26" width="20" height="20" rx="5" fill="#2E6E62"/>
    <rect x="74" y="26" width="20" height="20" rx="5" fill="#7A4E6B"/>
    <rect x="2"  y="50" width="20" height="20" rx="5" fill="#E9A23B"/>
    <rect x="26" y="50" width="20" height="20" rx="5" fill="#4E6B7A"/>
    <rect x="50" y="50" width="20" height="20" rx="5" fill="#8C5E2E"/>
    <rect x="74" y="50" width="20" height="20" rx="5" fill="#46508A"/>
    <rect x="98" y="50" width="20" height="20" rx="5" fill="#E9A23B"/>
    <rect x="2"  y="74" width="20" height="20" rx="5" fill="#7A4E6B"/>
    <rect x="26" y="74" width="20" height="20" rx="5" fill="#2E6E62"/>
    <rect x="50" y="74" width="20" height="20" rx="5" fill="#E9A23B"/>
    <rect x="74" y="74" width="20" height="20" rx="5" fill="#C4502F"/>
    <rect x="98" y="74" width="20" height="20" rx="5" fill="#2E6E62"/>
    <rect x="2"  y="98" width="20" height="20" rx="5" fill="#E9A23B"/>
    <rect x="26" y="98" width="20" height="20" rx="5" fill="#46508A"/>
    <rect x="74" y="98" width="20" height="20" rx="5" fill="#E9A23B"/>
    <rect x="98" y="98" width="20" height="20" rx="5" fill="#4E6B7A" transform="rotate(9 108 108)"/>
  </g>
</svg>
