<svg xmlns="http://www.w3.org/2000/svg" viewBox="0 0 600 640" width="600" height="640">
  
  <!-- tile-house, centered -->
  <g transform="translate(228,70) scale(1.2)">
    <rect x="50" y="2"  width="20" height="20" rx="5" fill="#E9A23B"/>
    <rect x="26" y="26" width="20" height="20" rx="5" fill="#C4502F"/>
    <rect x="50" y="26" width="20" height="20" rx="5" fill="#2E6E62"/>
    <rect x="74" y="26" width="20" height="20" rx="5" fill="#7A4E6B"/>
    <rect x="2"  y="50" width="20" height="20" rx="5" fill="#E9A23B"/>
    <rect x="26" y="50" width="20" height="20" rx="5" fill="#4E6B7A"/>
    <rect x="50" y="50" width="20" height="20" rx="5" fill="#8C5E2E"/>
    <rect x="74" y="50" width="20" height="20" rx="5" fill="#46508A"/>
    <rect x="98" y="50" width="20" height="20" rx="5" fill="#E9A23B"/>
    <rect x="2"  y="74" width="20" height="20" rx="5" fill="#7A4E6B"/>
    <rect x="26" y="74" width="20" height="20" rx="5" fill="#2E6E62"/>
    <rect x="50" y="74" width="20" height="20" rx="5" fill="#E9A23B"/>
    <rect x="74" y="74" width="20" height="20" rx="5" fill="#C4502F"/>
    <rect x="98" y="74" width="20" height="20" rx="5" fill="#2E6E62"/>
    <rect x="2"  y="98" width="20" height="20" rx="5" fill="#E9A23B"/>
    <rect x="26" y="98" width="20" height="20" rx="5" fill="#46508A"/>
    <rect x="74" y="98" width="20" height="20" rx="5" fill="#E9A23B"/>
    <rect x="98" y="98" width="20" height="20" rx="5" fill="#4E6B7A" transform="rotate(9 108 108)"/>
  </g>
  <!-- wordmark -->
  <text x="180" y="470" text-anchor="start" font-family="'JetBrains Mono', ui-monospace, monospace" font-weight="300" font-size="92" letter-spacing="14" fill="#F2EDE2">TESSER</text><text x="430" y="470" font-family="'JetBrains Mono', ui-monospace, monospace" font-weight="300" font-size="92" fill="#5A7A8A" transform="rotate(9 445 440)">A</text>
  <!-- tagline -->
  <text x="300" y="520" text-anchor="middle"
        font-family="'JetBrains Mono', ui-monospace, monospace" font-weight="500"
        font-size="22" letter-spacing="6" fill="#94A099">MANY PIECES. ONE MISSION.</text>
</svg>
